<svg xmlns="http://www.w3.org/2000/svg" viewBox="0 0 800 800" role="img" aria-label="Paleta de sombras Medianoche">
<defs>
<linearGradient id="medianoche-fondo" x1="0" y1="0" x2="1" y2="1"><stop offset="0" stop-color="#EDF0F6"/><stop offset="1" stop-color="#CBD2E3"/></linearGradient>
<linearGradient id="medianoche-caja" x1="0" y1="0" x2="0.4" y2="1"><stop offset="0" stop-color="#8b8c90"/><stop offset="1" stop-color="#292b32"/></linearGradient>
<linearGradient id="medianoche-brillo" x1="0" y1="0" x2="1" y2="1"><stop offset="0" stop-color="#fff" stop-opacity=".55"/><stop offset=".45" stop-color="#fff" stop-opacity="0"/></linearGradient>
<filter id="medianoche-sombra" x="-20%" y="-20%" width="140%" height="150%"><feDropShadow dx="0" dy="26" stdDeviation="26" flood-color="#3a2a20" flood-opacity=".22"/></filter>
<radialGradient id="medianoche-p0" cx=".34" cy=".28" r=".95"><stop offset="0" stop-color="#d4daec"/><stop offset=".55" stop-color="#C8D0E6"/><stop offset="1" stop-color="#acb3c6"/></radialGradient>
<radialGradient id="medianoche-p1" cx=".34" cy=".28" r=".95"><stop offset="0" stop-color="#c3cde6"/><stop offset=".55" stop-color="#9FAED6"/><stop offset="1" stop-color="#8996b8"/></radialGradient>
<radialGradient id="medianoche-p2" cx=".34" cy=".28" r=".95"><stop offset="0" stop-color="#93a2cf"/><stop offset=".55" stop-color="#7488C2"/><stop offset="1" stop-color="#6475a7"/></radialGradient>
<radialGradient id="medianoche-p3" cx=".34" cy=".28" r=".95"><stop offset="0" stop-color="#7585bb"/><stop offset=".55" stop-color="#4E63A8"/><stop offset="1" stop-color="#435590"/></radialGradient>
<radialGradient id="medianoche-p4" cx=".34" cy=".28" r=".95"><stop offset="0" stop-color="#6272a4"/><stop offset=".55" stop-color="#364A8A"/><stop offset="1" stop-color="#2e4077"/></radialGradient>
<radialGradient id="medianoche-p5" cx=".34" cy=".28" r=".95"><stop offset="0" stop-color="#566291"/><stop offset=".55" stop-color="#263672"/><stop offset="1" stop-color="#212e62"/></radialGradient>
<radialGradient id="medianoche-p6" cx=".34" cy=".28" r=".95"><stop offset="0" stop-color="#4d577d"/><stop offset=".55" stop-color="#1B2758"/><stop offset="1" stop-color="#17224c"/></radialGradient>
<radialGradient id="medianoche-p7" cx=".34" cy=".28" r=".95"><stop offset="0" stop-color="#cac0e2"/><stop offset=".55" stop-color="#A99AD1"/><stop offset="1" stop-color="#9184b4"/></radialGradient>
<radialGradient id="medianoche-p8" cx=".34" cy=".28" r=".95"><stop offset="0" stop-color="#978ac4"/><stop offset=".55" stop-color="#7A69B3"/><stop offset="1" stop-color="#695a9a"/></radialGradient>
<radialGradient id="medianoche-p9" cx=".34" cy=".28" r=".95"><stop offset="0" stop-color="#7a6fa8"/><stop offset=".55" stop-color="#54468F"/><stop offset="1" stop-color="#483c7b"/></radialGradient>
<radialGradient id="medianoche-p10" cx=".34" cy=".28" r=".95"><stop offset="0" stop-color="#dedfe6"/><stop offset=".55" stop-color="#C9CCD6"/><stop offset="1" stop-color="#adafb8"/></radialGradient>
<radialGradient id="medianoche-p11" cx=".34" cy=".28" r=".95"><stop offset="0" stop-color="#b9bcc6"/><stop offset=".55" stop-color="#8E93A3"/><stop offset="1" stop-color="#7a7e8c"/></radialGradient>
</defs>
<rect width="800" height="800" fill="url(#medianoche-fondo)"/>
<g transform="translate(400 400) rotate(-4) scale(1.12)">
<rect x="-290.0" y="-230.0" width="580" height="460" rx="38" fill="url(#medianoche-caja)" filter="url(#medianoche-sombra)"/>
<rect x="-290.0" y="-230.0" width="580" height="460" rx="38" fill="url(#medianoche-brillo)"/>
<rect x="-289.25" y="-229.25" width="578.5" height="458.5" rx="37" fill="none" stroke="#fff" stroke-opacity=".5" stroke-width="1.5"/>
<rect x="-264.0" y="-204.0" width="528" height="408" rx="22" fill="#1C1E23"/>
<rect x="-264.0" y="-204.0" width="528" height="408" rx="22" fill="none" stroke="#000" stroke-opacity=".06" stroke-width="1.5"/>
<circle cx="-198.0" cy="-136.0" r="59.0" fill="#191b20"/>
<circle cx="-198.0" cy="-136.0" r="59.0" fill="none" stroke="#fff" stroke-opacity=".35" stroke-width="1" transform="translate(0 1)"/>
<circle cx="-198.0" cy="-136.0" r="53.0" fill="url(#medianoche-p0)"/>
<ellipse cx="-212.8" cy="-158.3" rx="22.3" ry="9.5" fill="#fff" opacity="0.16" transform="rotate(-22 -212.8 -158.3)"/>
<circle cx="-66.0" cy="-136.0" r="59.0" fill="#191b20"/>
<circle cx="-66.0" cy="-136.0" r="59.0" fill="none" stroke="#fff" stroke-opacity=".35" stroke-width="1" transform="translate(0 1)"/>
<circle cx="-66.0" cy="-136.0" r="53.0" fill="url(#medianoche-p1)"/>
<ellipse cx="-80.8" cy="-158.3" rx="22.3" ry="9.5" fill="#fff" opacity="0.38" transform="rotate(-22 -80.8 -158.3)"/>
<circle cx="-31.3" cy="-115.7" r="1.6" fill="#fff" opacity="0.37"/>
<circle cx="-81.7" cy="-115.1" r="1.0" fill="#fff" opacity="0.42"/>
<circle cx="-66.9" cy="-136.6" r="0.9" fill="#fff" opacity="0.50"/>
<circle cx="-93.8" cy="-141.9" r="1.8" fill="#fff" opacity="0.72"/>
<circle cx="-51.1" cy="-158.6" r="0.7" fill="#fff" opacity="0.54"/>
<circle cx="-68.7" cy="-182.2" r="1.0" fill="#fff" opacity="0.77"/>
<circle cx="-91.7" cy="-110.2" r="1.9" fill="#fff" opacity="0.47"/>
<circle cx="-104.4" cy="-115.3" r="1.3" fill="#fff" opacity="0.85"/>
<circle cx="-30.2" cy="-111.7" r="1.7" fill="#fff" opacity="0.53"/>
<circle cx="-54.6" cy="-175.9" r="1.9" fill="#fff" opacity="0.84"/>
<circle cx="-50.7" cy="-150.3" r="1.0" fill="#fff" opacity="0.75"/>
<circle cx="-58.8" cy="-103.1" r="1.2" fill="#fff" opacity="0.75"/>
<circle cx="-66.5" cy="-162.9" r="1.4" fill="#fff" opacity="0.35"/>
<circle cx="-63.1" cy="-161.4" r="1.7" fill="#fff" opacity="0.81"/>
<circle cx="-80.6" cy="-135.7" r="1.6" fill="#fff" opacity="0.35"/>
<circle cx="-33.6" cy="-147.9" r="1.6" fill="#fff" opacity="0.82"/>
<circle cx="-41.0" cy="-132.4" r="1.7" fill="#fff" opacity="0.66"/>
<circle cx="-112.2" cy="-131.5" r="1.5" fill="#fff" opacity="0.47"/>
<circle cx="-69.4" cy="-153.1" r="1.6" fill="#fff" opacity="0.77"/>
<circle cx="-106.0" cy="-108.3" r="1.3" fill="#fff" opacity="0.61"/>
<circle cx="-38.7" cy="-122.1" r="1.8" fill="#fff" opacity="0.55"/>
<circle cx="-76.3" cy="-112.9" r="1.9" fill="#fff" opacity="0.39"/>
<circle cx="66.0" cy="-136.0" r="59.0" fill="#191b20"/>
<circle cx="66.0" cy="-136.0" r="59.0" fill="none" stroke="#fff" stroke-opacity=".35" stroke-width="1" transform="translate(0 1)"/>
<circle cx="66.0" cy="-136.0" r="53.0" fill="url(#medianoche-p2)"/>
<ellipse cx="51.2" cy="-158.3" rx="22.3" ry="9.5" fill="#fff" opacity="0.16" transform="rotate(-22 51.2 -158.3)"/>
<circle cx="198.0" cy="-136.0" r="59.0" fill="#191b20"/>
<circle cx="198.0" cy="-136.0" r="59.0" fill="none" stroke="#fff" stroke-opacity=".35" stroke-width="1" transform="translate(0 1)"/>
<circle cx="198.0" cy="-136.0" r="53.0" fill="url(#medianoche-p3)"/>
<ellipse cx="183.2" cy="-158.3" rx="22.3" ry="9.5" fill="#fff" opacity="0.16" transform="rotate(-22 183.2 -158.3)"/>
<circle cx="-198.0" cy="0.0" r="59.0" fill="#191b20"/>
<circle cx="-198.0" cy="0.0" r="59.0" fill="none" stroke="#fff" stroke-opacity=".35" stroke-width="1" transform="translate(0 1)"/>
<circle cx="-198.0" cy="0.0" r="53.0" fill="url(#medianoche-p4)"/>
<ellipse cx="-212.8" cy="-22.3" rx="22.3" ry="9.5" fill="#fff" opacity="0.16" transform="rotate(-22 -212.8 -22.3)"/>
<circle cx="-66.0" cy="0.0" r="59.0" fill="#191b20"/>
<circle cx="-66.0" cy="0.0" r="59.0" fill="none" stroke="#fff" stroke-opacity=".35" stroke-width="1" transform="translate(0 1)"/>
<circle cx="-66.0" cy="0.0" r="53.0" fill="url(#medianoche-p5)"/>
<ellipse cx="-80.8" cy="-22.3" rx="22.3" ry="9.5" fill="#fff" opacity="0.16" transform="rotate(-22 -80.8 -22.3)"/>
<circle cx="66.0" cy="0.0" r="59.0" fill="#191b20"/>
<circle cx="66.0" cy="0.0" r="59.0" fill="none" stroke="#fff" stroke-opacity=".35" stroke-width="1" transform="translate(0 1)"/>
<circle cx="66.0" cy="0.0" r="53.0" fill="url(#medianoche-p6)"/>
<ellipse cx="51.2" cy="-22.3" rx="22.3" ry="9.5" fill="#fff" opacity="0.16" transform="rotate(-22 51.2 -22.3)"/>
<circle cx="198.0" cy="0.0" r="59.0" fill="#191b20"/>
<circle cx="198.0" cy="0.0" r="59.0" fill="none" stroke="#fff" stroke-opacity=".35" stroke-width="1" transform="translate(0 1)"/>
<circle cx="198.0" cy="0.0" r="53.0" fill="url(#medianoche-p7)"/>
<ellipse cx="183.2" cy="-22.3" rx="22.3" ry="9.5" fill="#fff" opacity="0.38" transform="rotate(-22 183.2 -22.3)"/>
<circle cx="246.0" cy="-0.8" r="0.9" fill="#fff" opacity="0.61"/>
<circle cx="220.7" cy="0.7" r="0.9" fill="#fff" opacity="0.83"/>
<circle cx="211.6" cy="9.6" r="1.7" fill="#fff" opacity="0.49"/>
<circle cx="185.2" cy="-12.8" r="1.5" fill="#fff" opacity="0.42"/>
<circle cx="228.6" cy="-29.9" r="1.4" fill="#fff" opacity="0.54"/>
<circle cx="214.6" cy="12.7" r="1.2" fill="#fff" opacity="0.49"/>
<circle cx="156.1" cy="-13.7" r="1.4" fill="#fff" opacity="0.68"/>
<circle cx="218.7" cy="-19.3" r="0.9" fill="#fff" opacity="0.52"/>
<circle cx="193.0" cy="10.1" r="1.4" fill="#fff" opacity="0.65"/>
<circle cx="223.2" cy="6.5" r="1.6" fill="#fff" opacity="0.42"/>
<circle cx="214.6" cy="-38.9" r="1.0" fill="#fff" opacity="0.42"/>
<circle cx="223.7" cy="20.9" r="0.8" fill="#fff" opacity="0.56"/>
<circle cx="174.8" cy="-27.1" r="1.8" fill="#fff" opacity="0.40"/>
<circle cx="182.5" cy="15.0" r="1.4" fill="#fff" opacity="0.70"/>
<circle cx="220.4" cy="38.2" r="1.9" fill="#fff" opacity="0.64"/>
<circle cx="157.1" cy="-15.8" r="1.5" fill="#fff" opacity="0.61"/>
<circle cx="164.9" cy="-8.8" r="0.8" fill="#fff" opacity="0.79"/>
<circle cx="151.5" cy="-11.8" r="2.0" fill="#fff" opacity="0.38"/>
<circle cx="217.6" cy="-38.4" r="1.7" fill="#fff" opacity="0.46"/>
<circle cx="215.5" cy="26.0" r="1.7" fill="#fff" opacity="0.55"/>
<circle cx="199.8" cy="13.6" r="1.5" fill="#fff" opacity="0.69"/>
<circle cx="207.6" cy="0.1" r="1.3" fill="#fff" opacity="0.37"/>
<circle cx="-198.0" cy="136.0" r="59.0" fill="#191b20"/>
<circle cx="-198.0" cy="136.0" r="59.0" fill="none" stroke="#fff" stroke-opacity=".35" stroke-width="1" transform="translate(0 1)"/>
<circle cx="-198.0" cy="136.0" r="53.0" fill="url(#medianoche-p8)"/>
<ellipse cx="-212.8" cy="113.7" rx="22.3" ry="9.5" fill="#fff" opacity="0.16" transform="rotate(-22 -212.8 113.7)"/>
<circle cx="-66.0" cy="136.0" r="59.0" fill="#191b20"/>
<circle cx="-66.0" cy="136.0" r="59.0" fill="none" stroke="#fff" stroke-opacity=".35" stroke-width="1" transform="translate(0 1)"/>
<circle cx="-66.0" cy="136.0" r="53.0" fill="url(#medianoche-p9)"/>
<ellipse cx="-80.8" cy="113.7" rx="22.3" ry="9.5" fill="#fff" opacity="0.16" transform="rotate(-22 -80.8 113.7)"/>
<circle cx="66.0" cy="136.0" r="59.0" fill="#191b20"/>
<circle cx="66.0" cy="136.0" r="59.0" fill="none" stroke="#fff" stroke-opacity=".35" stroke-width="1" transform="translate(0 1)"/>
<circle cx="66.0" cy="136.0" r="53.0" fill="url(#medianoche-p10)"/>
<ellipse cx="51.2" cy="113.7" rx="22.3" ry="9.5" fill="#fff" opacity="0.38" transform="rotate(-22 51.2 113.7)"/>
<circle cx="86.8" cy="150.5" r="0.8" fill="#fff" opacity="0.69"/>
<circle cx="82.6" cy="106.2" r="1.1" fill="#fff" opacity="0.49"/>
<circle cx="25.7" cy="158.5" r="1.9" fill="#fff" opacity="0.56"/>
<circle cx="58.8" cy="94.0" r="1.0" fill="#fff" opacity="0.45"/>
<circle cx="67.7" cy="125.0" r="1.8" fill="#fff" opacity="0.41"/>
<circle cx="50.4" cy="119.2" r="1.6" fill="#fff" opacity="0.56"/>
<circle cx="45.1" cy="138.0" r="1.8" fill="#fff" opacity="0.83"/>
<circle cx="82.9" cy="107.2" r="1.1" fill="#fff" opacity="0.73"/>
<circle cx="45.2" cy="158.6" r="1.0" fill="#fff" opacity="0.57"/>
<circle cx="32.8" cy="139.6" r="1.4" fill="#fff" opacity="0.60"/>
<circle cx="52.2" cy="106.6" r="1.8" fill="#fff" opacity="0.77"/>
<circle cx="47.8" cy="167.8" r="1.1" fill="#fff" opacity="0.66"/>
<circle cx="41.5" cy="174.6" r="1.4" fill="#fff" opacity="0.69"/>
<circle cx="65.1" cy="143.1" r="2.0" fill="#fff" opacity="0.75"/>
<circle cx="109.0" cy="143.4" r="1.5" fill="#fff" opacity="0.48"/>
<circle cx="59.5" cy="167.9" r="0.7" fill="#fff" opacity="0.49"/>
<circle cx="99.9" cy="119.2" r="1.4" fill="#fff" opacity="0.54"/>
<circle cx="37.8" cy="146.5" r="1.1" fill="#fff" opacity="0.44"/>
<circle cx="105.7" cy="135.6" r="1.8" fill="#fff" opacity="0.73"/>
<circle cx="38.1" cy="147.9" r="1.9" fill="#fff" opacity="0.52"/>
<circle cx="82.8" cy="164.9" r="1.7" fill="#fff" opacity="0.49"/>
<circle cx="46.8" cy="92.9" r="1.7" fill="#fff" opacity="0.59"/>
<circle cx="198.0" cy="136.0" r="59.0" fill="#191b20"/>
<circle cx="198.0" cy="136.0" r="59.0" fill="none" stroke="#fff" stroke-opacity=".35" stroke-width="1" transform="translate(0 1)"/>
<circle cx="198.0" cy="136.0" r="53.0" fill="url(#medianoche-p11)"/>
<ellipse cx="183.2" cy="113.7" rx="22.3" ry="9.5" fill="#fff" opacity="0.38" transform="rotate(-22 183.2 113.7)"/>
<circle cx="213.1" cy="139.6" r="1.0" fill="#fff" opacity="0.77"/>
<circle cx="225.1" cy="163.3" r="1.4" fill="#fff" opacity="0.70"/>
<circle cx="229.1" cy="119.0" r="1.2" fill="#fff" opacity="0.36"/>
<circle cx="186.1" cy="117.5" r="0.8" fill="#fff" opacity="0.68"/>
<circle cx="210.0" cy="118.1" r="1.0" fill="#fff" opacity="0.68"/>
<circle cx="227.3" cy="137.2" r="1.1" fill="#fff" opacity="0.76"/>
<circle cx="155.3" cy="157.6" r="1.0" fill="#fff" opacity="0.73"/>
<circle cx="195.2" cy="87.1" r="0.9" fill="#fff" opacity="0.81"/>
<circle cx="196.2" cy="137.3" r="1.0" fill="#fff" opacity="0.47"/>
<circle cx="181.3" cy="144.2" r="1.4" fill="#fff" opacity="0.61"/>
<circle cx="246.5" cy="132.5" r="1.5" fill="#fff" opacity="0.45"/>
<circle cx="201.1" cy="136.8" r="1.7" fill="#fff" opacity="0.50"/>
<circle cx="216.0" cy="139.9" r="1.5" fill="#fff" opacity="0.72"/>
<circle cx="189.9" cy="89.9" r="1.1" fill="#fff" opacity="0.49"/>
<circle cx="231.8" cy="111.8" r="1.5" fill="#fff" opacity="0.72"/>
<circle cx="232.8" cy="152.7" r="0.8" fill="#fff" opacity="0.58"/>
<circle cx="188.1" cy="164.0" r="1.8" fill="#fff" opacity="0.66"/>
<circle cx="206.9" cy="171.3" r="1.1" fill="#fff" opacity="0.63"/>
<circle cx="211.4" cy="148.5" r="1.7" fill="#fff" opacity="0.47"/>
<circle cx="185.9" cy="112.5" r="1.7" fill="#fff" opacity="0.70"/>
<circle cx="187.3" cy="158.3" r="1.9" fill="#fff" opacity="0.46"/>
<circle cx="207.4" cy="107.8" r="1.0" fill="#fff" opacity="0.65"/>
</g>
</svg>
